PathFileType	4	(X/Y/Z)	TVC_36_BWA_06_walk_RCNL2025.trc
DataRate	CameraRate	NumFrames	NumMarkers	Units	OrigDataRate	OrigDataStartFrame	OrigNumFrames
100	100	12	27	mm	100	447	714
Frame#	Time	R_Shoulder			L_Shoulder			C7			J_Notch			R_Elbow			L_Elbow			R_Wrist			L_Wrist			R_Asis			L_Asis			R_Psis			L_Psis			Sacral			Thoracic			Sternum			R_Thigh_Lateral			R_Knee_Lateral			R_Shank_Lateral			R_Ankle_Lateral			R_Heel			R_Toe			L_Thigh_Lateral			L_Knee_Lateral			L_Shank_Lateral			L_Ankle_Lateral			L_Heel			L_Toe		
		X1	Y1	Z1	X2	Y2	Z2	X3	Y3	Z3	X4	Y4	Z4	X5	Y5	Z5	X6	Y6	Z6	X7	Y7	Z7	X8	Y8	Z8	X9	Y9	Z9	X10	Y10	Z10	X11	Y11	Z11	X12	Y12	Z12	X13	Y13	Z13	X14	Y14	Z14	X15	Y15	Z15	X16	Y16	Z16	X17	Y17	Z17	X18	Y18	Z18	X19	Y19	Z19	X20	Y20	Z20	X21	Y21	Z21	X22	Y22	Z22	X23	Y23	Z23	X24	Y24	Z24	X25	Y25	Z25	X26	Y26	Z26	X27	Y27	Z27
447	4.46000000	836.517639	1406.891235	585.315186	752.374878	1384.130859	246.015030	761.389404	1447.194702	425.200714	911.835876	1322.398315	400.810699	782.054016	1126.260986	692.672363	718.007202	1087.544067	155.003769	866.718506	917.837952	699.660004	891.094696	989.804260	241.920662	871.378174	903.574829	524.941833	798.386963	913.470032	275.593170	687.347595	942.250305	495.744354	661.929993	939.206238	415.641144	674.638794	940.728271	455.692749	710.332458	1162.775391	445.617126	944.676819	1169.181763	379.846405	838.978638	637.049316	606.863770	874.258667	465.182312	516.498291	834.236267	265.988525	572.537109	816.679871	73.549278	505.458588	770.220764	58.635826	456.204071	940.959106	44.867344	477.367249	746.279541	672.073792	196.605209	743.636230	474.960419	258.800934	641.505737	289.795410	224.994492	648.905640	76.067436	278.493469	608.639282	63.536678	328.203033	775.826294	48.304260	292.748657
448	4.47000000	838.307983	1407.285522	585.811401	754.786682	1383.830444	246.454514	763.420776	1447.205688	425.579681	914.057739	1322.575317	401.659424	782.408813	1126.889038	693.350586	720.542236	1087.440186	155.102325	867.140320	918.474640	701.432770	893.573151	989.476929	241.685783	874.214478	903.868774	526.183777	800.914429	913.510986	276.925812	690.048157	942.061035	496.992828	664.545715	938.948425	416.936707	677.296936	940.504730	456.964767	712.680542	1162.761230	446.501526	947.209045	1169.394409	381.057770	841.339417	636.805298	607.401794	876.243652	464.935883	516.736938	835.885986	265.798798	572.644104	816.818298	73.545280	505.351807	770.302063	58.768543	456.162781	941.010254	44.896408	477.141083	749.555725	672.282043	197.322495	746.963623	474.969757	258.857422	643.775452	290.319061	224.781555	649.325439	76.665833	278.428741	608.879150	64.393539	328.021393	775.955444	48.223034	292.828339
449	4.48000000	840.082397	1407.706421	586.273193	757.099609	1383.528564	246.896606	765.398682	1447.225220	425.956146	916.221741	1322.768311	402.470764	782.780396	1127.624023	694.105225	723.107544	1087.331421	155.171585	867.436951	919.167847	703.359253	896.213776	989.266510	241.289749	876.979004	904.102051	527.345398	803.309204	913.588928	278.277344	692.742920	941.886108	498.291504	667.110046	938.714844	418.299866	679.926483	940.300476	458.295685	714.993591	1162.759399	447.430389	949.681458	1169.623901	382.225189	843.694336	636.567505	607.939819	878.165161	464.700470	516.993225	837.444092	265.611267	572.771545	816.958740	73.540344	505.280151	770.373169	58.895401	456.156372	941.060303	44.925701	476.947357	752.645935	672.574280	197.971817	750.304626	475.026672	258.772644	646.068176	290.905762	224.453888	649.745728	77.322159	278.241943	609.102295	65.351425	327.721130	776.082397	48.147751	292.875732
450	4.49000000	841.843933	1408.155884	586.702576	759.312378	1383.225586	247.344238	767.323486	1447.254517	426.332642	918.327759	1322.977051	403.245819	783.222534	1128.488037	694.961670	725.703735	1087.214355	155.223389	867.621002	919.928436	705.458160	899.008179	989.157684	240.761253	879.649109	904.267639	528.421082	805.575745	913.707275	279.638458	695.429321	941.728455	499.637878	669.623413	938.507568	419.726105	682.526367	940.118011	459.681992	717.270630	1162.770752	448.404175	952.091980	1169.869263	383.349487	846.041992	636.341492	608.478699	880.002380	464.477997	517.269897	838.880859	265.416992	572.911316	817.101440	73.535072	505.240417	770.434570	59.015957	456.183411	941.109009	44.953709	476.783813	755.539368	672.951660	198.549271	753.658020	475.134308	258.543610	648.377563	291.559296	224.027954	650.174438	78.040596	277.949036	609.323975	66.415947	327.326019	776.213562	48.077305	292.892181
451	4.50000000	843.594971	1408.635132	587.101868	761.424438	1382.921509	247.799698	769.195557	1447.293823	426.711212	920.375488	1323.200684	403.985748	783.781677	1129.498657	695.940369	728.330139	1087.085693	155.269287	867.721344	920.771606	707.748779	901.945557	989.136536	240.128067	882.214661	904.366211	529.412109	807.721252	913.867737	280.999542	698.104187	941.590027	501.028503	672.086548	938.327332	421.209534	685.095367	939.958679	461.119019	719.510376	1162.796021	449.422150	954.438416	1170.128784	384.431854	848.380188	636.132751	609.020203	881.734253	464.269806	517.570190	840.172363	265.210632	573.059937	817.245667	73.529846	505.230011	770.486694	59.129452	456.243317	941.155762	44.978878	476.646790	758.236572	673.411865	199.053207	757.022888	475.294434	258.169373	650.698303	292.282288	223.517960	650.619324	78.824303	277.564331	609.559082	67.590668	326.855682	776.354309	48.010742	292.879272
452	4.51000000	845.337585	1409.144287	587.473267	763.435852	1382.616577	248.264526	771.015137	1447.343262	427.093323	922.364990	1323.437622	404.691772	784.488892	1130.665283	697.053772	730.984192	1086.942139	155.320389	867.775452	921.712921	710.248138	905.013489	989.191467	239.416222	884.678650	904.406128	530.326416	809.755371	914.070129	282.351562	700.763428	941.471802	502.458923	674.500977	938.173462	422.743195	687.632202	939.822632	462.601059	721.711060	1162.834961	450.482513	956.718750	1170.400269	385.473877	850.705078	635.947144	609.567078	883.341370	464.076447	517.897644	841.304688	264.991974	573.221069	817.389526	73.524818	505.247620	770.529968	59.234615	456.336578	941.199463	44.999847	476.532196	760.749878	673.949524	199.484467	760.398438	475.507538	257.650970	653.026794	293.075867	222.935287	651.087708	79.675224	277.099731	609.821106	68.877090	326.325043	776.508911	47.947388	292.838776
453	4.52000000	847.073242	1409.682373	587.818970	765.347229	1382.310181	248.739609	772.782532	1447.402344	427.479950	924.296082	1323.685547	405.365112	785.352783	1131.986938	698.303711	733.661438	1086.780029	155.387299	867.819183	922.763611	712.967041	908.197876	989.313660	238.649483	887.056030	904.402466	531.178040	811.689697	914.312500	283.686890	703.402344	941.373657	503.923828	676.868164	938.044006	424.319153	690.135254	939.708832	464.121490	723.870789	1162.886719	451.582428	958.931091	1170.680786	386.477448	853.010498	635.790344	610.123596	884.806824	463.897797	518.256226	842.275635	264.765656	573.405273	817.530090	73.519928	505.292694	770.564453	59.329933	456.464264	941.238586	45.015774	476.436340	763.102112	674.556824	199.846222	763.784302	475.772766	256.991699	655.361145	293.939697	222.288345	651.586243	80.593979	276.564484	610.121643	70.274521	325.743927	776.680786	47.887001	292.772552
454	4.53000000	848.802917	1410.247803	588.141235	767.159851	1382.001587	249.225250	774.498108	1447.470215	427.871460	926.169006	1323.941650	406.007019	786.355469	1133.449585	699.680786	736.355530	1086.595581	155.479935	867.881042	923.928436	715.908661	911.483551	989.496704	237.848953	889.371033	904.375793	531.986206	813.537292	914.590942	284.999756	706.015625	941.294373	505.416992	679.190002	937.935669	425.928741	692.602814	939.615021	465.672867	725.987732	1162.949951	452.718048	961.074158	1170.967041	387.444733	855.288574	635.667419	610.695068	886.117859	463.733002	518.650024	843.093750	264.540253	573.627930	817.663391	73.514885	505.364868	770.590271	59.413967	456.627197	941.271301	45.026741	476.356384	765.323975	675.224182	200.143478	767.180359	476.087860	256.197479	657.701294	294.871552	221.582718	652.120728	81.579712	275.965240	610.469849	71.779968	325.117157	776.872314	47.829857	292.682251
455	4.54000000	850.527283	1410.837891	588.442017	768.875488	1381.689453	249.721146	776.162476	1447.545044	428.267700	927.984253	1324.202759	406.618652	787.452698	1135.027100	701.163818	739.058289	1086.384766	155.607407	867.984772	925.207428	719.069580	914.854126	989.736511	237.032928	891.653320	904.349487	532.773193	815.311951	914.899780	286.286438	708.597778	941.231689	506.931549	681.468262	937.844360	427.562897	695.033020	939.538025	467.247223	728.059814	1163.022583	453.884766	963.147034	1171.255249	388.378296	857.529785	635.581787	611.287537	887.267151	463.580688	519.082825	843.775330	264.325836	573.903809	817.785278	73.509140	505.462585	770.607300	59.485653	456.824554	941.295837	45.034065	476.290009	767.450745	675.941101	200.382599	770.586487	476.449249	255.276978	660.049194	295.867432	220.821396	652.695984	82.629921	275.306061	610.872131	73.388008	324.445038	777.085510	47.776833	292.569305
456	4.55000000	852.246582	1411.448975	588.723267	770.496765	1381.371948	250.226532	777.776306	1447.625000	428.667938	929.742615	1324.465210	407.201111	788.580994	1136.683350	702.723206	741.759827	1086.143188	155.777863	868.154358	926.598846	722.441620	918.292419	990.030365	236.216873	893.933899	904.347046	533.562561	817.027832	915.232178	287.545380	711.143066	941.182495	508.460236	683.704590	937.765137	429.212402	697.423828	939.473816	468.836319	730.085449	1163.102295	455.077301	965.149719	1171.541748	389.280823	859.723816	635.534363	611.906494	888.253723	463.438782	519.557068	844.340393	264.130707	574.242126	817.892456	73.501884	505.582306	770.615417	59.544491	457.052704	941.310730	45.040333	476.235077	769.519165	676.696411	200.570969	774.002197	476.852112	254.242126	662.408203	296.921387	220.005508	653.315674	83.740341	274.589081	611.332031	75.090721	323.724396	777.321655	47.729458	292.434479
457	4.56000000	853.960999	1412.077271	588.986816	772.026733	1381.046753	250.740204	779.340759	1447.707520	429.071014	931.445374	1324.724976	407.755493	789.672791	1138.377808	704.325806	744.448792	1085.866211	155.998337	868.412659	928.097626	726.011353	921.780579	990.376190	235.413475	896.240601	904.389465	534.376831	818.698853	915.580200	288.777100	713.645935	941.142822	509.995728	685.900330	937.692749	430.868164	699.773132	939.417786	470.431946	732.063110	1163.186523	456.289948	967.082947	1171.822266	390.155334	861.859741	635.522705	612.556152	889.083191	463.304932	520.073608	844.809265	263.958496	574.642395	817.982788	73.492157	505.717743	770.614746	59.590622	457.304413	941.315125	45.049225	476.188812	771.564575	677.478516	200.716782	777.426453	477.290680	253.107986	664.782898	298.025696	219.134979	653.982178	84.904892	273.814941	611.850464	76.877693	322.949371	777.581848	47.689915	292.277954
458	4.57000000	855.670410	1412.718140	589.234131	773.469482	1380.710571	251.260529	780.857117	1447.789673	429.475342	933.094360	1324.978271	408.282928	790.673584	1140.072266	705.941162	747.113037	1085.549194	156.274765	868.770996	929.692017	729.758118	925.300079	990.771545	234.632896	898.595337	904.493042	535.235779	820.337830	915.935425	289.983887	716.101135	941.108337	511.530975	688.056702	937.621765	432.521637	702.078918	939.365051	472.026306	733.992065	1163.272095	457.516754	968.948120	1172.092773	391.004944	863.926941	635.540588	613.238770	889.768250	463.176605	520.631165	845.201965	263.808105	575.093445	818.055786	73.479027	505.860260	770.605530	59.624855	457.568970	941.309021	45.065033	476.147522	773.618408	678.275940	200.828644	780.857239	477.758270	251.892609	667.177979	299.171112	218.209549	654.696960	86.115776	272.983582	612.425903	78.736137	322.112915	777.866821	47.660976	292.099274
